<?xml version="1.0" encoding="UTF-8"?>
<mxfile host="app.diagrams.net" modified="2024-01-15T10:00:00.000Z" agent="5.0" etag="network-topology" version="22.1.16">
  <diagram name="Network Topology & Security Zones" id="network-topology">
    <mxGraphModel dx="2074" dy="1196" grid="1" gridSize="10" guides="1" tooltips="1" connect="1" arrows="1" fold="1" page="1" pageScale="1" pageWidth="1654" pageHeight="1169" math="0" shadow="0">
      <root>
        <mxCell id="0" />
        <mxCell id="1" parent="0" />
        
        <!-- Title -->
        <mxCell id="title" value="Multi-Cloud Network Topology and Security Zones - Zero-Trust Architecture SOC 2 Compliant PCI-DSS Level 1" style="text;html=1;strokeColor=none;fillColor=none;align=center;verticalAlign=middle;whiteSpace=wrap;rounded=0;fontSize=16;fontStyle=1;" vertex="1" parent="1">
          <mxGeometry x="527" y="20" width="600" height="40" as="geometry" />
        </mxCell>

        <!-- Internet Zone -->
        <mxCell id="internet-zone" value="" style="fillColor=#ffcccc;strokeColor=#36393d;dashed=1;verticalAlign=top;fontStyle=1;whiteSpace=wrap;html=1;fontSize=14;" vertex="1" parent="1">
          <mxGeometry x="40" y="80" width="1574" height="80" as="geometry" />
        </mxCell>
        <mxCell id="internet-label" value="Internet Zone Untrusted Network" style="text;html=1;strokeColor=none;fillColor=none;align=left;verticalAlign=top;whiteSpace=wrap;rounded=0;fontSize=14;fontStyle=1;fontColor=#d32f2f;" vertex="1" parent="1">
          <mxGeometry x="50" y="90" width="250" height="20" as="geometry" />
        </mxCell>

        <!-- Global Users -->
        <mxCell id="global-users" value="Global Users&#xa;10K Concurrent" style="ellipse;whiteSpace=wrap;html=1;fillColor=#ffcccc;strokeColor=#d32f2f;fontSize=12;fontStyle=1;" vertex="1" parent="1">
          <mxGeometry x="727" y="110" width="120" height="40" as="geometry" />
        </mxCell>

        <!-- AWS Production VPC -->
        <mxCell id="aws-vpc" value="" style="fillColor=#e1f5fe;strokeColor=#01579b;dashed=1;verticalAlign=top;fontStyle=1;whiteSpace=wrap;html=1;fontSize=14;" vertex="1" parent="1">
          <mxGeometry x="40" y="200" width="760" height="700" as="geometry" />
        </mxCell>
        <mxCell id="aws-vpc-label" value="AWS Production VPC 10.0.0.0/16 us-east-1" style="text;html=1;strokeColor=none;fillColor=none;align=left;verticalAlign=top;whiteSpace=wrap;rounded=0;fontSize=14;fontStyle=1;fontColor=#01579b;" vertex="1" parent="1">
          <mxGeometry x="50" y="210" width="300" height="20" as="geometry" />
        </mxCell>

        <!-- DMZ Zone (Public Subnets) -->
        <mxCell id="dmz-zone" value="" style="fillColor=#fff3e0;strokeColor=#e65100;dashed=1;verticalAlign=top;fontStyle=1;whiteSpace=wrap;html=1;fontSize=12;" vertex="1" parent="1">
          <mxGeometry x="60" y="250" width="720" height="120" as="geometry" />
        </mxCell>
        <mxCell id="dmz-label" value="DMZ Zone Public Subnets Internet Facing" style="text;html=1;strokeColor=none;fillColor=none;align=left;verticalAlign=top;whiteSpace=wrap;rounded=0;fontSize=12;fontStyle=1;fontColor=#e65100;" vertex="1" parent="1">
          <mxGeometry x="70" y="260" width="300" height="20" as="geometry" />
        </mxCell>

        <!-- Public Subnets -->
        <mxCell id="pub-subnet-1a" value="Public Subnet 1A&#xa;10.0.1.0/24&#xa;us-east-1a" style="rounded=1;whiteSpace=wrap;html=1;fillColor=#fff3e0;strokeColor=#e65100;fontSize=10;" vertex="1" parent="1">
          <mxGeometry x="80" y="290" width="120" height="60" as="geometry" />
        </mxCell>
        
        <mxCell id="pub-subnet-1b" value="Public Subnet 1B&#xa;10.0.2.0/24&#xa;us-east-1b" style="rounded=1;whiteSpace=wrap;html=1;fillColor=#fff3e0;strokeColor=#e65100;fontSize=10;" vertex="1" parent="1">
          <mxGeometry x="220" y="290" width="120" height="60" as="geometry" />
        </mxCell>
        
        <mxCell id="pub-subnet-1c" value="Public Subnet 1C&#xa;10.0.3.0/24&#xa;us-east-1c" style="rounded=1;whiteSpace=wrap;html=1;fillColor=#fff3e0;strokeColor=#e65100;fontSize=10;" vertex="1" parent="1">
          <mxGeometry x="360" y="290" width="120" height="60" as="geometry" />
        </mxCell>

        <!-- Load Balancers in DMZ -->
        <mxCell id="alb-dmz" value="" style="sketch=0;points=[[0,0,0],[0.25,0,0],[0.5,0,0],[0.75,0,0],[1,0,0],[0,1,0],[0.25,1,0],[0.5,1,0],[0.75,1,0],[1,1,0],[0,0.25,0],[0,0.5,0],[0,0.75,0],[1,0.25,0],[1,0.5,0],[1,0.75,0]];outlineConnect=0;fontColor=#232F3E;gradientColor=#F78E04;gradientDirection=north;fillColor=#D05C17;strokeColor=#ffffff;dashed=0;verticalLabelPosition=bottom;verticalAlign=top;align=center;html=1;fontSize=12;fontStyle=0;aspect=fixed;shape=mxgraph.aws4.resourceIcon;resIcon=mxgraph.aws4.application_load_balancer;" vertex="1" parent="1">
          <mxGeometry x="520" y="300" width="40" height="40" as="geometry" />
        </mxCell>

        <!-- NAT Gateways -->
        <mxCell id="nat-1a" value="NAT GW" style="rounded=1;whiteSpace=wrap;html=1;fillColor=#fff3e0;strokeColor=#e65100;fontSize=9;" vertex="1" parent="1">
          <mxGeometry x="110" y="320" width="60" height="20" as="geometry" />
        </mxCell>
        
        <mxCell id="nat-1b" value="NAT GW" style="rounded=1;whiteSpace=wrap;html=1;fillColor=#fff3e0;strokeColor=#e65100;fontSize=9;" vertex="1" parent="1">
          <mxGeometry x="250" y="320" width="60" height="20" as="geometry" />
        </mxCell>
        
        <mxCell id="nat-1c" value="NAT GW" style="rounded=1;whiteSpace=wrap;html=1;fillColor=#fff3e0;strokeColor=#e65100;fontSize=9;" vertex="1" parent="1">
          <mxGeometry x="390" y="320" width="60" height="20" as="geometry" />
        </mxCell>

        <!-- Application Zone (Private Subnets) -->
        <mxCell id="app-zone" value="" style="fillColor=#e8f5e8;strokeColor=#2e7d32;dashed=1;verticalAlign=top;fontStyle=1;whiteSpace=wrap;html=1;fontSize=12;" vertex="1" parent="1">
          <mxGeometry x="60" y="390" width="720" height="180" as="geometry" />
        </mxCell>
        <mxCell id="app-label" value="Application Zone - Private Subnets (EKS Worker Nodes)" style="text;html=1;strokeColor=none;fillColor=none;align=left;verticalAlign=top;whiteSpace=wrap;rounded=0;fontSize=12;fontStyle=1;fontColor=#2e7d32;" vertex="1" parent="1">
          <mxGeometry x="70" y="400" width="350" height="20" as="geometry" />
        </mxCell>

        <!-- Private App Subnets -->
        <mxCell id="priv-app-1a" value="Private Subnet 1A&#xa;10.0.10.0/24&#xa;us-east-1a&#xa;EKS Workers" style="rounded=1;whiteSpace=wrap;html=1;fillColor=#e8f5e8;strokeColor=#2e7d32;fontSize=10;" vertex="1" parent="1">
          <mxGeometry x="80" y="430" width="120" height="60" as="geometry" />
        </mxCell>
        
        <mxCell id="priv-app-1b" value="Private Subnet 1B&#xa;10.0.11.0/24&#xa;us-east-1b&#xa;EKS Workers" style="rounded=1;whiteSpace=wrap;html=1;fillColor=#e8f5e8;strokeColor=#2e7d32;fontSize=10;" vertex="1" parent="1">
          <mxGeometry x="220" y="430" width="120" height="60" as="geometry" />
        </mxCell>
        
        <mxCell id="priv-app-1c" value="Private Subnet 1C&#xa;10.0.12.0/24&#xa;us-east-1c&#xa;EKS Workers" style="rounded=1;whiteSpace=wrap;html=1;fillColor=#e8f5e8;strokeColor=#2e7d32;fontSize=10;" vertex="1" parent="1">
          <mxGeometry x="360" y="430" width="120" height="60" as="geometry" />
        </mxCell>

        <!-- EKS Control Plane -->
        <mxCell id="eks-control" value="" style="sketch=0;points=[[0,0,0],[0.25,0,0],[0.5,0,0],[0.75,0,0],[1,0,0],[0,1,0],[0.25,1,0],[0.5,1,0],[0.75,1,0],[1,1,0],[0,0.25,0],[0,0.5,0],[0,0.75,0],[1,0.25,0],[1,0.5,0],[1,0.75,0]];outlineConnect=0;fontColor=#232F3E;gradientColor=#F78E04;gradientDirection=north;fillColor=#D05C17;strokeColor=#ffffff;dashed=0;verticalLabelPosition=bottom;verticalAlign=top;align=center;html=1;fontSize=12;fontStyle=0;aspect=fixed;shape=mxgraph.aws4.resourceIcon;resIcon=mxgraph.aws4.eks;" vertex="1" parent="1">
          <mxGeometry x="520" y="440" width="40" height="40" as="geometry" />
        </mxCell>
        <mxCell id="eks-label" value="EKS Control Plane&#xa;Managed by AWS" style="text;html=1;strokeColor=none;fillColor=none;align=center;verticalAlign=middle;whiteSpace=wrap;rounded=0;fontSize=9;" vertex="1" parent="1">
          <mxGeometry x="490" y="485" width="100" height="25" as="geometry" />
        </mxCell>

        <!-- Security Groups -->
        <mxCell id="sg-app" value="Security Group&#xa;App-SG&#xa;Port 8080, 443" style="rounded=1;whiteSpace=wrap;html=1;fillColor=#ffebee;strokeColor=#c62828;fontSize=9;" vertex="1" parent="1">
          <mxGeometry x="600" y="430" width="80" height="50" as="geometry" />
        </mxCell>

        <!-- Data Zone (Database Subnets) -->
        <mxCell id="data-zone" value="" style="fillColor=#f3e5f5;strokeColor=#7b1fa2;dashed=1;verticalAlign=top;fontStyle=1;whiteSpace=wrap;html=1;fontSize=12;" vertex="1" parent="1">
          <mxGeometry x="60" y="590" width="720" height="120" as="geometry" />
        </mxCell>
        <mxCell id="data-label" value="Data Zone - Database Subnets (Encrypted at Rest &amp; Transit)" style="text;html=1;strokeColor=none;fillColor=none;align=left;verticalAlign=top;whiteSpace=wrap;rounded=0;fontSize=12;fontStyle=1;fontColor=#7b1fa2;" vertex="1" parent="1">
          <mxGeometry x="70" y="600" width="400" height="20" as="geometry" />
        </mxCell>

        <!-- Database Subnets -->
        <mxCell id="db-subnet-1a" value="DB Subnet 1A&#xa;10.0.20.0/24&#xa;us-east-1a&#xa;RDS, Cache" style="rounded=1;whiteSpace=wrap;html=1;fillColor=#f3e5f5;strokeColor=#7b1fa2;fontSize=10;" vertex="1" parent="1">
          <mxGeometry x="80" y="630" width="120" height="60" as="geometry" />
        </mxCell>
        
        <mxCell id="db-subnet-1b" value="DB Subnet 1B&#xa;10.0.21.0/24&#xa;us-east-1b&#xa;RDS, Cache" style="rounded=1;whiteSpace=wrap;html=1;fillColor=#f3e5f5;strokeColor=#7b1fa2;fontSize=10;" vertex="1" parent="1">
          <mxGeometry x="220" y="630" width="120" height="60" as="geometry" />
        </mxCell>
        
        <mxCell id="db-subnet-1c" value="DB Subnet 1C&#xa;10.0.22.0/24&#xa;us-east-1c&#xa;RDS, Cache" style="rounded=1;whiteSpace=wrap;html=1;fillColor=#f3e5f5;strokeColor=#7b1fa2;fontSize=10;" vertex="1" parent="1">
          <mxGeometry x="360" y="630" width="120" height="60" as="geometry" />
        </mxCell>

        <!-- Database Icons -->
        <mxCell id="rds-icon" value="" style="sketch=0;points=[[0,0,0],[0.25,0,0],[0.5,0,0],[0.75,0,0],[1,0,0],[0,1,0],[0.25,1,0],[0.5,1,0],[0.75,1,0],[1,1,0],[0,0.25,0],[0,0.5,0],[0,0.75,0],[1,0.25,0],[1,0.5,0],[1,0.75,0]];outlineConnect=0;fontColor=#232F3E;gradientColor=#4AB29A;gradientDirection=north;fillColor=#116D5B;strokeColor=#ffffff;dashed=0;verticalLabelPosition=bottom;verticalAlign=top;align=center;html=1;fontSize=12;fontStyle=0;aspect=fixed;shape=mxgraph.aws4.resourceIcon;resIcon=mxgraph.aws4.aurora;" vertex="1" parent="1">
          <mxGeometry x="520" y="640" width="40" height="40" as="geometry" />
        </mxCell>

        <!-- Security Groups for DB -->
        <mxCell id="sg-db" value="Security Group&#xa;DB-SG&#xa;Port 5432" style="rounded=1;whiteSpace=wrap;html=1;fillColor=#ffebee;strokeColor=#c62828;fontSize=9;" vertex="1" parent="1">
          <mxGeometry x="600" y="630" width="80" height="50" as="geometry" />
        </mxCell>

        <!-- Management Zone -->
        <mxCell id="mgmt-zone" value="" style="fillColor=#fff8e1;strokeColor=#f57f17;dashed=1;verticalAlign=top;fontStyle=1;whiteSpace=wrap;html=1;fontSize=12;" vertex="1" parent="1">
          <mxGeometry x="60" y="730" width="720" height="120" as="geometry" />
        </mxCell>
        <mxCell id="mgmt-label" value="Management Zone - Admin Access (VPN Only)" style="text;html=1;strokeColor=none;fillColor=none;align=left;verticalAlign=top;whiteSpace=wrap;rounded=0;fontSize=12;fontStyle=1;fontColor=#f57f17;" vertex="1" parent="1">
          <mxGeometry x="70" y="740" width="300" height="20" as="geometry" />
        </mxCell>

        <!-- Management Subnets -->
        <mxCell id="mgmt-subnet-1a" value="Mgmt Subnet 1A&#xa;10.0.30.0/24&#xa;us-east-1a&#xa;Bastion, Monitor" style="rounded=1;whiteSpace=wrap;html=1;fillColor=#fff8e1;strokeColor=#f57f17;fontSize=10;" vertex="1" parent="1">
          <mxGeometry x="80" y="770" width="120" height="60" as="geometry" />
        </mxCell>
        
        <mxCell id="mgmt-subnet-1b" value="Mgmt Subnet 1B&#xa;10.0.31.0/24&#xa;us-east-1b&#xa;Bastion, Monitor" style="rounded=1;whiteSpace=wrap;html=1;fillColor=#fff8e1;strokeColor=#f57f17;fontSize=10;" vertex="1" parent="1">
          <mxGeometry x="220" y="770" width="120" height="60" as="geometry" />
        </mxCell>

        <!-- Bastion Host -->
        <mxCell id="bastion" value="Bastion Host&#xa;MFA Required" style="rounded=1;whiteSpace=wrap;html=1;fillColor=#fff8e1;strokeColor=#f57f17;fontSize=10;" vertex="1" parent="1">
          <mxGeometry x="360" y="780" width="80" height="40" as="geometry" />
        </mxCell>

        <!-- Azure DR VNet -->
        <mxCell id="azure-vnet" value="" style="fillColor=#fce4ec;strokeColor=#ad1457;dashed=1;verticalAlign=top;fontStyle=1;whiteSpace=wrap;html=1;fontSize=14;" vertex="1" parent="1">
          <mxGeometry x="860" y="200" width="760" height="700" as="geometry" />
        </mxCell>
        <mxCell id="azure-vnet-label" value="Azure DR Virtual Network (10.1.0.0/16) - East US 2" style="text;html=1;strokeColor=none;fillColor=none;align=left;verticalAlign=top;whiteSpace=wrap;rounded=0;fontSize=14;fontStyle=1;fontColor=#ad1457;" vertex="1" parent="1">
          <mxGeometry x="870" y="210" width="350" height="20" as="geometry" />
        </mxCell>

        <!-- Azure Public Subnets -->
        <mxCell id="azure-pub-zone" value="" style="fillColor=#fff3e0;strokeColor=#e65100;dashed=1;verticalAlign=top;fontStyle=1;whiteSpace=wrap;html=1;fontSize=12;" vertex="1" parent="1">
          <mxGeometry x="880" y="250" width="720" height="120" as="geometry" />
        </mxCell>
        <mxCell id="azure-pub-label" value="Azure Public Subnets - Application Gateway" style="text;html=1;strokeColor=none;fillColor=none;align=left;verticalAlign=top;whiteSpace=wrap;rounded=0;fontSize=12;fontStyle=1;fontColor=#e65100;" vertex="1" parent="1">
          <mxGeometry x="890" y="260" width="300" height="20" as="geometry" />
        </mxCell>

        <mxCell id="azure-pub-1" value="Public Subnet 1&#xa;10.1.1.0/24&#xa;App Gateway" style="rounded=1;whiteSpace=wrap;html=1;fillColor=#fff3e0;strokeColor=#e65100;fontSize=10;" vertex="1" parent="1">
          <mxGeometry x="900" y="290" width="120" height="60" as="geometry" />
        </mxCell>
        
        <mxCell id="azure-pub-2" value="Public Subnet 2&#xa;10.1.2.0/24&#xa;Load Balancer" style="rounded=1;whiteSpace=wrap;html=1;fillColor=#fff3e0;strokeColor=#e65100;fontSize=10;" vertex="1" parent="1">
          <mxGeometry x="1040" y="290" width="120" height="60" as="geometry" />
        </mxCell>

        <!-- Azure App Gateway -->
        <mxCell id="azure-appgw" value="Application&#xa;Gateway + WAF" style="rounded=1;whiteSpace=wrap;html=1;fillColor=#fff3e0;strokeColor=#e65100;fontSize=10;" vertex="1" parent="1">
          <mxGeometry x="1200" y="300" width="100" height="40" as="geometry" />
        </mxCell>

        <!-- Azure Private Subnets -->
        <mxCell id="azure-priv-zone" value="" style="fillColor=#e8f5e8;strokeColor=#2e7d32;dashed=1;verticalAlign=top;fontStyle=1;whiteSpace=wrap;html=1;fontSize=12;" vertex="1" parent="1">
          <mxGeometry x="880" y="390" width="720" height="180" as="geometry" />
        </mxCell>
        <mxCell id="azure-priv-label" value="Azure Private Subnets - AKS Worker Nodes (Warm Standby)" style="text;html=1;strokeColor=none;fillColor=none;align=left;verticalAlign=top;whiteSpace=wrap;rounded=0;fontSize=12;fontStyle=1;fontColor=#2e7d32;" vertex="1" parent="1">
          <mxGeometry x="890" y="400" width="400" height="20" as="geometry" />
        </mxCell>

        <mxCell id="azure-priv-1" value="Private Subnet 1&#xa;10.1.10.0/24&#xa;AKS Workers" style="rounded=1;whiteSpace=wrap;html=1;fillColor=#e8f5e8;strokeColor=#2e7d32;fontSize=10;" vertex="1" parent="1">
          <mxGeometry x="900" y="430" width="120" height="60" as="geometry" />
        </mxCell>
        
        <mxCell id="azure-priv-2" value="Private Subnet 2&#xa;10.1.11.0/24&#xa;AKS Workers" style="rounded=1;whiteSpace=wrap;html=1;fillColor=#e8f5e8;strokeColor=#2e7d32;fontSize=10;" vertex="1" parent="1">
          <mxGeometry x="1040" y="430" width="120" height="60" as="geometry" />
        </mxCell>

        <!-- AKS -->
        <mxCell id="aks-control" value="AKS&#xa;Control Plane" style="rounded=1;whiteSpace=wrap;html=1;fillColor=#e8f5e8;strokeColor=#2e7d32;fontSize=10;" vertex="1" parent="1">
          <mxGeometry x="1200" y="440" width="80" height="40" as="geometry" />
        </mxCell>

        <!-- Azure Database Zone -->
        <mxCell id="azure-db-zone" value="" style="fillColor=#f3e5f5;strokeColor=#7b1fa2;dashed=1;verticalAlign=top;fontStyle=1;whiteSpace=wrap;html=1;fontSize=12;" vertex="1" parent="1">
          <mxGeometry x="880" y="590" width="720" height="120" as="geometry" />
        </mxCell>
        <mxCell id="azure-db-label" value="Azure Database Zone - Cross-Cloud Replication" style="text;html=1;strokeColor=none;fillColor=none;align=left;verticalAlign=top;whiteSpace=wrap;rounded=0;fontSize=12;fontStyle=1;fontColor=#7b1fa2;" vertex="1" parent="1">
          <mxGeometry x="890" y="600" width="350" height="20" as="geometry" />
        </mxCell>

        <mxCell id="azure-db-1" value="DB Subnet 1&#xa;10.1.20.0/24&#xa;PostgreSQL" style="rounded=1;whiteSpace=wrap;html=1;fillColor=#f3e5f5;strokeColor=#7b1fa2;fontSize=10;" vertex="1" parent="1">
          <mxGeometry x="900" y="630" width="120" height="60" as="geometry" />
        </mxCell>
        
        <mxCell id="azure-db-2" value="DB Subnet 2&#xa;10.1.21.0/24&#xa;Cache, Storage" style="rounded=1;whiteSpace=wrap;html=1;fillColor=#f3e5f5;strokeColor=#7b1fa2;fontSize=10;" vertex="1" parent="1">
          <mxGeometry x="1040" y="630" width="120" height="60" as="geometry" />
        </mxCell>

        <!-- Cross-Cloud VPN -->
        <mxCell id="vpn-gateway-aws" value="" style="sketch=0;points=[[0,0,0],[0.25,0,0],[0.5,0,0],[0.75,0,0],[1,0,0],[0,1,0],[0.25,1,0],[0.5,1,0],[0.75,1,0],[1,1,0],[0,0.25,0],[0,0.5,0],[0,0.75,0],[1,0.25,0],[1,0.5,0],[1,0.75,0]];outlineConnect=0;fontColor=#232F3E;gradientColor=#945DF2;gradientDirection=north;fillColor=#5A30B5;strokeColor=#ffffff;dashed=0;verticalLabelPosition=bottom;verticalAlign=top;align=center;html=1;fontSize=12;fontStyle=0;aspect=fixed;shape=mxgraph.aws4.resourceIcon;resIcon=mxgraph.aws4.vpn_gateway;" vertex="1" parent="1">
          <mxGeometry x="720" y="480" width="40" height="40" as="geometry" />
        </mxCell>
        <mxCell id="vpn-aws-label" value="VPN Gateway" style="text;html=1;strokeColor=none;fillColor=none;align=center;verticalAlign=middle;whiteSpace=wrap;rounded=0;fontSize=9;" vertex="1" parent="1">
          <mxGeometry x="700" y="525" width="80" height="15" as="geometry" />
        </mxCell>

        <mxCell id="vpn-gateway-azure" value="VPN Gateway&#xa;Azure" style="rounded=1;whiteSpace=wrap;html=1;fillColor=#fce4ec;strokeColor=#ad1457;fontSize=10;" vertex="1" parent="1">
          <mxGeometry x="820" y="480" width="80" height="40" as="geometry" />
        </mxCell>

        <!-- VPN Connection -->
        <mxCell id="vpn-connection" value="" style="endArrow=classic;startArrow=classic;html=1;rounded=0;strokeColor=#ff6f00;strokeWidth=4;dashed=1;" edge="1" parent="1">
          <mxGeometry width="50" height="50" relative="1" as="geometry">
            <mxPoint x="760" y="500" as="sourcePoint" />
            <mxPoint x="820" y="500" as="targetPoint" />
          </mxGeometry>
        </mxCell>
        <mxCell id="vpn-conn-label" value="Site-to-Site VPN&#xa;10 Gbps | IPSec&#xa;BGP Routing" style="text;html=1;strokeColor=none;fillColor=none;align=center;verticalAlign=middle;whiteSpace=wrap;rounded=0;fontSize=10;fontStyle=1;fontColor=#ff6f00;" vertex="1" parent="1">
          <mxGeometry x="760" y="540" width="100" height="40" as="geometry" />
        </mxCell>

        <!-- Security Controls Legend -->
        <mxCell id="security-legend" value="" style="fillColor=#ffebee;strokeColor=#c62828;dashed=1;verticalAlign=top;fontStyle=1;whiteSpace=wrap;html=1;fontSize=12;" vertex="1" parent="1">
          <mxGeometry x="40" y="940" width="760" height="120" as="geometry" />
        </mxCell>
        <mxCell id="security-legend-label" value="Security Controls &amp; Zero-Trust Implementation" style="text;html=1;strokeColor=none;fillColor=none;align=left;verticalAlign=top;whiteSpace=wrap;rounded=0;fontSize=12;fontStyle=1;fontColor=#c62828;" vertex="1" parent="1">
          <mxGeometry x="50" y="950" width="300" height="20" as="geometry" />
        </mxCell>

        <!-- Security Controls -->
        <mxCell id="sec-control-1" value="• WAF + DDoS Protection&#xa;• Network ACLs&#xa;• Security Groups (Stateful)&#xa;• VPC Flow Logs" style="text;html=1;strokeColor=none;fillColor=none;align=left;verticalAlign=top;whiteSpace=wrap;rounded=0;fontSize=10;" vertex="1" parent="1">
          <mxGeometry x="60" y="980" width="180" height="60" as="geometry" />
        </mxCell>

        <mxCell id="sec-control-2" value="• mTLS between services&#xa;• Pod Security Policies&#xa;• Network Policies&#xa;• RBAC + IAM" style="text;html=1;strokeColor=none;fillColor=none;align=left;verticalAlign=top;whiteSpace=wrap;rounded=0;fontSize=10;" vertex="1" parent="1">
          <mxGeometry x="260" y="980" width="180" height="60" as="geometry" />
        </mxCell>

        <mxCell id="sec-control-3" value="• Database Encryption (TDE)&#xa;• Secrets Management&#xa;• Certificate Rotation&#xa;• Audit Logging" style="text;html=1;strokeColor=none;fillColor=none;align=left;verticalAlign=top;whiteSpace=wrap;rounded=0;fontSize=10;" vertex="1" parent="1">
          <mxGeometry x="460" y="980" width="180" height="60" as="geometry" />
        </mxCell>

        <!-- Compliance Legend -->
        <mxCell id="compliance-legend" value="" style="fillColor=#e8f5e8;strokeColor=#2e7d32;dashed=1;verticalAlign=top;fontStyle=1;whiteSpace=wrap;html=1;fontSize=12;" vertex="1" parent="1">
          <mxGeometry x="860" y="940" width="760" height="120" as="geometry" />
        </mxCell>
        <mxCell id="compliance-legend-label" value="Compliance &amp; Data Residency" style="text;html=1;strokeColor=none;fillColor=none;align=left;verticalAlign=top;whiteSpace=wrap;rounded=0;fontSize=12;fontStyle=1;fontColor=#2e7d32;" vertex="1" parent="1">
          <mxGeometry x="870" y="950" width="200" height="20" as="geometry" />
        </mxCell>

        <!-- Compliance Controls -->
        <mxCell id="comp-control-1" value="SOC 2 Type II:&#xa;• Continuous monitoring&#xa;• Access controls&#xa;• Change management&#xa;• Incident response" style="text;html=1;strokeColor=none;fillColor=none;align=left;verticalAlign=top;whiteSpace=wrap;rounded=0;fontSize=10;" vertex="1" parent="1">
          <mxGeometry x="880" y="980" width="180" height="60" as="geometry" />
        </mxCell>

        <mxCell id="comp-control-2" value="PCI-DSS Level 1:&#xa;• Card data tokenization&#xa;• Secure transmission&#xa;• Regular pen testing&#xa;• Vulnerability scans" style="text;html=1;strokeColor=none;fillColor=none;align=left;verticalAlign=top;whiteSpace=wrap;rounded=0;fontSize=10;" vertex="1" parent="1">
          <mxGeometry x="1080" y="980" width="180" height="60" as="geometry" />
        </mxCell>

        <mxCell id="comp-control-3" value="GDPR Compliance:&#xa;• EU data in eu-west-1&#xa;• Data minimization&#xa;• Right to be forgotten&#xa;• Privacy by design" style="text;html=1;strokeColor=none;fillColor=none;align=left;verticalAlign=top;whiteSpace=wrap;rounded=0;fontSize=10;" vertex="1" parent="1">
          <mxGeometry x="1280" y="980" width="180" height="60" as="geometry" />
        </mxCell>

        <!-- Traffic Flow Arrows -->
        <mxCell id="flow1" value="" style="endArrow=classic;html=1;rounded=0;strokeColor=#666666;strokeWidth=2;" edge="1" parent="1" source="global-users" target="alb-dmz">
          <mxGeometry width="50" height="50" relative="1" as="geometry">
            <mxPoint x="787" y="160" as="sourcePoint" />
            <mxPoint x="540" y="290" as="targetPoint" />
          </mxGeometry>
        </mxCell>

        <mxCell id="flow2" value="" style="endArrow=classic;html=1;rounded=0;strokeColor=#666666;strokeWidth=2;" edge="1" parent="1" source="alb-dmz" target="eks-control">
          <mxGeometry width="50" height="50" relative="1" as="geometry">
            <mxPoint x="540" y="340" as="sourcePoint" />
            <mxPoint x="540" y="430" as="targetPoint" />
          </mxGeometry>
        </mxCell>

        <mxCell id="flow3" value="" style="endArrow=classic;html=1;rounded=0;strokeColor=#666666;strokeWidth=2;" edge="1" parent="1" source="eks-control" target="rds-icon">
          <mxGeometry width="50" height="50" relative="1" as="geometry">
            <mxPoint x="540" y="480" as="sourcePoint" />
            <mxPoint x="540" y="630" as="targetPoint" />
          </mxGeometry>
        </mxCell>

      </root>
    </mxGraphModel>
  </diagram>
</mxfile>